<svg
   width="24"
   height="24"
   viewport="0 0 24 24"
  <path
     fill="currentColor"
     d="m 21,12 c -0.552285,0 -1,0.447715 -1,1 v 6 c 0,0.552285 -0.447715,1 -1,1 H 5 C 4.4477153,20 4,19.552285 4,19 V 5 C 4,4.4477153 4.4477226,3.9971587 5,4 l 11.015348,0.056671 c 1.333316,0.00686 1.304994,-2.0248967 -0.02834,-2.0283353 L 5,2 C 3.3431513,1.995727 2,3.3431458 2,5 v 14 c 0,1.656854 1.3431458,3 3,3 h 14 c 1.656854,0 3,-1.343146 3,-3 v -6 c 0,-0.552285 -0.447715,-1 -1,-1 m -10.041322,2.449822 c 0,0.249377 -2.616209,-2.230998 -3.2384667,-2.482796 -0.9315119,-0.376938 -1.3006904,1.230106 -1.0602349,1.41432 l 4.4383466,3.400236 c 0.265803,0.0015 0.521282,-0.102814 0.71,-0.29 l 9.725196,-11.6903306 0.54484,-0.7398583 c 0.394398,-0.3911768 0.394398,-1.0288231 0,-1.42 l 0.01029,0.016966 c -0.391177,-0.3943978 -1.028823,-0.3943978 -1.42,0"
     id="path1" />
</svg>
