<?xml version="1.0" encoding="UTF-8" standalone="no"?>
<svg
   width="24"
   height="24"
   viewBox="0 0 24 24"
   version="1.1"
   id="svg1"
   sodipodi:docname="faridoon.svg"
   inkscape:version="1.4 (e7c3feb100, 2024-10-09)"
   inkscape:export-filename="faridoon.png"
   inkscape:export-xdpi="96"
   inkscape:export-ydpi="96"
   xmlns:inkscape="http://www.inkscape.org/namespaces/inkscape"
   xmlns:sodipodi="http://sodipodi.sourceforge.net/DTD/sodipodi-0.dtd"
   xmlns="http://www.w3.org/2000/svg"
   xmlns:svg="http://www.w3.org/2000/svg">
  <defs
     id="defs1" />
  <sodipodi:namedview
     id="namedview1"
     pagecolor="#ffffff"
     bordercolor="#111111"
     borderopacity="1"
     inkscape:showpageshadow="0"
     inkscape:pageopacity="0"
     inkscape:pagecheckerboard="1"
     inkscape:deskcolor="#d1d1d1"
     inkscape:zoom="24.954977"
     inkscape:cx="10.238439"
     inkscape:cy="6.9925931"
     inkscape:window-width="1920"
     inkscape:window-height="1056"
     inkscape:window-x="1280"
     inkscape:window-y="1104"
     inkscape:window-maximized="1"
     inkscape:current-layer="svg1" />
  <path
     style="fill:#6f2c82;fill-opacity:1;stroke:none;stroke-width:46.6779"
     d="M 2.4625042,2.6033679 21.48267,2.843801 c 0,0 1.9994,14.865432 -0.321177,16.727078 C 18.578181,16.976287 3.0564954,17.052813 3.0564954,17.052813 Z"
     id="rect2"
     sodipodi:nodetypes="ccccc" />
  <path
     fill="currentColor"
     d="M 17.777242,6.49639 H 6.4964059 a 1.1280836,1.1280836 0 0 0 0,2.2561671 H 17.777242 a 1.1280836,1.1280836 0 0 0 0,-2.2561671 m 0,4.512334 H 6.4964059 a 1.128084,1.128084 0 0 0 0,2.256168 H 17.777242 a 1.128084,1.128084 0 0 0 0,-2.256168 M 20.033409,0.85597209 H 4.2402387 A 3.3842507,3.3842507 0 0 0 0.85598803,4.2402228 V 15.521059 A 3.3842507,3.3842507 0 0 0 4.2402387,18.90531 H 17.314728 l 4.173909,4.185189 a 1.1280836,1.1280836 0 0 0 0.800939,0.327145 0.9475902,0.9475902 0 0 0 0.428672,-0.09025 1.1280836,1.1280836 0 0 0 0.699412,-1.037836 V 4.2402228 A 3.3842507,3.3842507 0 0 0 20.033409,0.85597209 M 21.161493,19.570879 18.578181,16.976287 A 1.1280836,1.1280836 0 0 0 17.777242,16.649142 H 4.2402387 A 1.1280836,1.1280836 0 0 1 3.1121552,15.521059 V 4.2402228 A 1.1280836,1.1280836 0 0 1 4.2402387,3.1121393 H 20.033409 a 1.1280836,1.1280836 0 0 1 1.128084,1.1280835 z"
     id="path1"
     style="fill:#ffffff;fill-opacity:1;stroke-width:1.12808" />
</svg>
